<svg xmlns="http://www.w3.org/2000/svg" xmlns:xlink="http://www.w3.org/1999/xlink" width="500" zoomAndPan="magnify" viewBox="0 0 375 374.999991" height="500" preserveAspectRatio="xMidYMid meet" version="1.2"><defs><clipPath id="51153631b0"><path d="M 130 119.773438 L 152.855469 119.773438 L 152.855469 143 L 130 143 Z M 130 119.773438 "/></clipPath><clipPath id="976043880c"><path d="M 128.105469 124 L 134 124 L 134 132 L 128.105469 132 Z M 128.105469 124 "/></clipPath><clipPath id="3dbcc62f85"><path d="M 129 143 L 135 143 L 135 150.523438 L 129 150.523438 Z M 129 143 "/></clipPath></defs><g id="e1f96393f7"><g style="fill:#ffffff;fill-opacity:1;"><g transform="translate(19.056471, 264.952679)"><path style="stroke:none" d="M 174.34375 0 L 23.46875 0 L 23.46875 -210.28125 L 177.578125 -210.28125 C 204.953125 -210.28125 227.484375 -209.03125 245.171875 -206.53125 C 262.867188 -204.039062 276.503906 -200.128906 286.078125 -194.796875 C 295.660156 -189.472656 302.160156 -182.707031 305.578125 -174.5 C 309.003906 -166.289062 310.71875 -156.46875 310.71875 -145.03125 C 310.425781 -136.03125 307.957031 -128.570312 303.3125 -122.65625 C 298.675781 -116.75 293.253906 -112.351562 287.046875 -109.46875 C 280.835938 -106.582031 275.382812 -105.140625 270.6875 -105.140625 C 275.28125 -105.140625 280.65625 -104.234375 286.8125 -102.421875 C 292.976562 -100.617188 298.96875 -98.003906 304.78125 -94.578125 C 310.601562 -91.160156 315.441406 -87.003906 319.296875 -82.109375 C 323.160156 -77.222656 325.09375 -71.65625 325.09375 -65.40625 C 325.09375 -57.1875 324.140625 -49.65625 322.234375 -42.8125 C 320.328125 -35.96875 316.515625 -29.90625 310.796875 -24.625 C 305.078125 -19.351562 296.644531 -14.882812 285.5 -11.21875 C 274.351562 -7.550781 259.757812 -4.765625 241.71875 -2.859375 C 223.6875 -0.953125 201.226562 0 174.34375 0 Z M 169.359375 -123.171875 C 182.265625 -123.171875 192.257812 -123.804688 199.34375 -125.078125 C 206.4375 -126.347656 211.351562 -128.28125 214.09375 -130.875 C 216.832031 -133.46875 218.203125 -136.765625 218.203125 -140.765625 C 218.203125 -144.878906 216.832031 -148.226562 214.09375 -150.8125 C 211.351562 -153.40625 206.4375 -155.3125 199.34375 -156.53125 C 192.257812 -157.757812 182.265625 -158.375 169.359375 -158.375 L 111.734375 -158.375 L 111.734375 -123.171875 Z M 169.359375 -51.90625 C 182.554688 -51.90625 193.257812 -52.25 201.46875 -52.9375 C 209.6875 -53.625 215.703125 -55.1875 219.515625 -57.625 C 223.328125 -60.070312 225.234375 -64.03125 225.234375 -69.5 C 225.234375 -74.976562 223.328125 -78.960938 219.515625 -81.453125 C 215.703125 -83.953125 209.6875 -85.519531 201.46875 -86.15625 C 193.257812 -86.789062 182.554688 -87.109375 169.359375 -87.109375 L 111.734375 -87.109375 L 111.734375 -51.90625 Z M 169.359375 -51.90625 "/></g></g><path style=" stroke:none;fill-rule:nonzero;fill:#ffffff;fill-opacity:1;" d="M 135.949219 140.59375 C 135.792969 141.0625 135.574219 141.519531 135.3125 141.953125 C 135.117188 142.261719 134.875 142.546875 134.640625 142.835938 C 134.152344 143.433594 133.601562 143.992188 132.976562 144.492188 C 132.59375 144.820312 132.21875 145.152344 131.785156 145.433594 C 131.453125 145.664062 131.113281 145.894531 130.714844 146.042969 C 130.53125 146.132812 130.359375 146.054688 130.285156 145.9375 C 130.238281 145.859375 130.230469 145.761719 130.285156 145.683594 C 130.300781 145.664062 130.316406 145.644531 130.335938 145.628906 C 130.320312 145.632812 130.304688 145.632812 130.285156 145.632812 L 130.285156 130.296875 C 130.570312 130.335938 130.84375 130.4375 131.078125 130.570312 C 131.398438 130.75 131.683594 130.988281 131.855469 131.285156 C 132.144531 131.777344 132.273438 132.316406 132.355469 132.859375 C 132.453125 133.449219 132.550781 134.042969 132.746094 134.621094 C 133.136719 135.722656 133.621094 136.625 134.539062 137.609375 C 134.988281 138.082031 135.40625 138.578125 135.726562 139.117188 C 135.882812 139.386719 136.015625 139.675781 136.050781 139.972656 C 136.0625 140.183594 136.011719 140.394531 135.949219 140.59375 Z M 135.949219 140.59375 "/><g clip-rule="nonzero" clip-path="url(#51153631b0)"><path style=" stroke:none;fill-rule:nonzero;fill:#ffffff;fill-opacity:1;" d="M 152.734375 132.242188 C 152.710938 131.675781 152.335938 131.144531 151.613281 130.667969 C 150.011719 129.613281 147.988281 129.234375 146.175781 129.648438 C 145.46875 128.21875 144.308594 127.011719 142.902344 126.25 C 143.277344 124.464844 142.894531 122.488281 141.859375 120.914062 C 141.382812 120.195312 140.855469 119.816406 140.285156 119.796875 C 139.671875 119.773438 139.203125 120.167969 138.820312 120.558594 C 137.546875 121.871094 136.519531 123.460938 135.84375 125.175781 C 133.671875 125.605469 131.785156 127.277344 131.007812 129.480469 C 130.632812 130.539062 130.5 131.691406 130.617188 132.902344 C 130.730469 134.050781 131.074219 135.21875 131.609375 136.273438 C 132.148438 137.339844 132.90625 138.359375 133.851562 139.304688 C 134.59375 140.046875 135.453125 140.742188 136.410156 141.375 C 136.417969 141.378906 136.425781 141.382812 136.433594 141.386719 C 139.21875 142.929688 141.3125 142.449219 142.996094 141.78125 C 144.324219 141.25 146.902344 139.515625 147.339844 136.691406 C 149.058594 136.011719 150.65625 134.984375 151.96875 133.707031 C 152.359375 133.328125 152.757812 132.855469 152.734375 132.242188 Z M 152.734375 132.242188 "/></g><path style=" stroke:none;fill-rule:nonzero;fill:#ffffff;fill-opacity:1;" d="M 137.546875 136.566406 C 137.667969 136.339844 137.667969 136.074219 137.554688 135.824219 C 137.46875 135.632812 136.960938 135.097656 136.71875 134.988281 C 136.46875 134.875 136.203125 134.875 135.976562 134.996094 C 135.703125 135.136719 135.496094 135.453125 135.425781 135.835938 L 135.421875 135.84375 C 135.40625 135.941406 135.382812 136.0625 135.394531 136.203125 C 135.402344 136.3125 135.433594 136.421875 135.480469 136.535156 C 135.53125 136.660156 135.601562 136.765625 135.6875 136.855469 C 135.777344 136.941406 135.882812 137.011719 136.007812 137.0625 C 136.121094 137.113281 136.230469 137.140625 136.339844 137.148438 C 136.480469 137.160156 136.601562 137.136719 136.699219 137.121094 L 136.707031 137.121094 C 137.089844 137.046875 137.40625 136.839844 137.546875 136.566406 Z M 137.546875 136.566406 "/><path style=" stroke:none;fill-rule:nonzero;fill:#ffffff;fill-opacity:1;" d="M 138.605469 130.46875 C 139.085938 129.457031 138.71875 128.242188 137.585938 127.910156 C 136.96875 127.742188 136.277344 127.890625 135.773438 128.285156 C 135.078125 128.730469 134.257812 129.835938 134.148438 130.78125 C 134.125 130.886719 134.101562 130.996094 134.09375 131.101562 C 134.070312 132.667969 135.613281 132.980469 136.765625 132.269531 C 137.503906 131.828125 138.222656 131.253906 138.605469 130.46875 Z M 138.605469 130.46875 "/><path style=" stroke:none;fill-rule:nonzero;fill:#ffffff;fill-opacity:1;" d="M 137.40625 129.828125 C 136.449219 128.945312 134.265625 131.132812 135.140625 132.089844 C 136.097656 132.972656 138.28125 130.785156 137.40625 129.828125 Z M 137.40625 129.828125 "/><path style=" stroke:none;fill-rule:nonzero;fill:#ffffff;fill-opacity:1;" d="M 142.335938 134.199219 C 143.347656 133.714844 144.5625 134.085938 144.894531 135.214844 C 145.0625 135.835938 144.914062 136.523438 144.519531 137.027344 C 144.074219 137.722656 142.96875 138.542969 142.019531 138.65625 C 141.914062 138.679688 141.808594 138.703125 141.699219 138.710938 C 140.136719 138.730469 139.824219 137.1875 140.535156 136.039062 C 140.976562 135.300781 141.550781 134.582031 142.335938 134.199219 Z M 142.335938 134.199219 "/><path style=" stroke:none;fill-rule:nonzero;fill:#ffffff;fill-opacity:1;" d="M 142.957031 135.378906 C 142 134.496094 139.816406 136.6875 140.691406 137.644531 C 141.648438 138.523438 143.832031 136.335938 142.957031 135.378906 Z M 142.957031 135.378906 "/><path style=" stroke:none;fill-rule:nonzero;fill:#ffffff;fill-opacity:1;" d="M 130.285156 145.683594 L 130.285156 145.9375 C 130.234375 145.859375 130.226562 145.761719 130.285156 145.683594 Z M 130.285156 145.683594 "/><g clip-rule="nonzero" clip-path="url(#976043880c)"><path style=" stroke:none;fill-rule:nonzero;fill:#ffffff;fill-opacity:1;" d="M 132.738281 129.734375 C 133.265625 128.1875 132.914062 127.132812 132.742188 126.753906 C 132.316406 125.820312 131.429688 125.148438 130.308594 124.90625 C 129.644531 124.765625 129.191406 124.953125 128.925781 125.140625 C 128.582031 125.375 128.355469 125.738281 128.300781 126.136719 C 128.230469 126.621094 128.421875 127.109375 128.769531 127.4375 C 128.46875 127.640625 128.25 127.960938 128.191406 128.324219 C 128.125 128.742188 128.277344 129.175781 128.570312 129.472656 C 128.304688 129.703125 128.136719 130.050781 128.136719 130.414062 C 128.144531 130.921875 128.460938 131.421875 128.949219 131.6875 C 129.347656 131.902344 129.855469 131.96875 130.375 131.871094 C 131.4375 131.667969 132.363281 130.828125 132.738281 129.734375 Z M 132.738281 129.734375 "/></g><g clip-rule="nonzero" clip-path="url(#3dbcc62f85)"><path style=" stroke:none;fill-rule:nonzero;fill:#ffffff;fill-opacity:1;" d="M 133.816406 148.277344 C 134.34375 146.730469 133.992188 145.679688 133.820312 145.296875 C 133.394531 144.367188 132.507812 143.691406 131.390625 143.449219 C 130.722656 143.308594 130.269531 143.496094 130.003906 143.683594 C 129.660156 143.917969 129.433594 144.28125 129.378906 144.679688 C 129.308594 145.164062 129.5 145.652344 129.847656 145.980469 C 129.546875 146.183594 129.328125 146.503906 129.269531 146.867188 C 129.203125 147.285156 129.355469 147.71875 129.648438 148.015625 C 129.382812 148.246094 129.214844 148.59375 129.21875 148.957031 C 129.222656 149.464844 129.539062 149.964844 130.027344 150.230469 C 130.425781 150.445312 130.933594 150.511719 131.453125 150.414062 C 132.515625 150.210938 133.445312 149.371094 133.816406 148.277344 Z M 133.816406 148.277344 "/></g></g></svg>