<svg xmlns="http://www.w3.org/2000/svg" xmlns:xlink="http://www.w3.org/1999/xlink" width="194" zoomAndPan="magnify" viewBox="0 0 145.5 40.499999" height="54" preserveAspectRatio="xMidYMid meet" version="1.2"><defs/><g id="78655cfa69"><g style="fill:#ffffff;fill-opacity:1;"><g transform="translate(1.63073, 27.041728)"><path style="stroke:none" d="M 15.609375 0 L 2.09375 0 L 2.09375 -18.8125 L 15.890625 -18.8125 C 18.335938 -18.8125 20.351562 -18.703125 21.9375 -18.484375 C 23.519531 -18.265625 24.738281 -17.914062 25.59375 -17.4375 C 26.457031 -16.957031 27.039062 -16.347656 27.34375 -15.609375 C 27.65625 -14.878906 27.8125 -14.003906 27.8125 -12.984375 C 27.78125 -12.171875 27.554688 -11.5 27.140625 -10.96875 C 26.722656 -10.445312 26.238281 -10.054688 25.6875 -9.796875 C 25.132812 -9.535156 24.644531 -9.40625 24.21875 -9.40625 C 24.632812 -9.40625 25.117188 -9.320312 25.671875 -9.15625 C 26.222656 -9 26.757812 -8.765625 27.28125 -8.453125 C 27.800781 -8.148438 28.234375 -7.78125 28.578125 -7.34375 C 28.921875 -6.90625 29.09375 -6.410156 29.09375 -5.859375 C 29.09375 -5.117188 29.003906 -4.441406 28.828125 -3.828125 C 28.660156 -3.210938 28.320312 -2.671875 27.8125 -2.203125 C 27.300781 -1.734375 26.546875 -1.332031 25.546875 -1 C 24.546875 -0.675781 23.238281 -0.425781 21.625 -0.25 C 20.019531 -0.0820312 18.015625 0 15.609375 0 Z M 15.15625 -11.015625 C 16.3125 -11.015625 17.207031 -11.070312 17.84375 -11.1875 C 18.476562 -11.300781 18.914062 -11.472656 19.15625 -11.703125 C 19.40625 -11.941406 19.53125 -12.238281 19.53125 -12.59375 C 19.53125 -12.96875 19.40625 -13.269531 19.15625 -13.5 C 18.914062 -13.726562 18.476562 -13.894531 17.84375 -14 C 17.207031 -14.113281 16.3125 -14.171875 15.15625 -14.171875 L 10 -14.171875 L 10 -11.015625 Z M 15.15625 -4.640625 C 16.332031 -4.640625 17.285156 -4.671875 18.015625 -4.734375 C 18.753906 -4.796875 19.296875 -4.9375 19.640625 -5.15625 C 19.984375 -5.375 20.15625 -5.726562 20.15625 -6.21875 C 20.15625 -6.707031 19.984375 -7.0625 19.640625 -7.28125 C 19.296875 -7.507812 18.753906 -7.648438 18.015625 -7.703125 C 17.285156 -7.765625 16.332031 -7.796875 15.15625 -7.796875 L 10 -7.796875 L 10 -4.640625 Z M 15.15625 -4.640625 "/></g></g><g style="fill:#ffffff;fill-opacity:1;"><g transform="translate(30.182067, 27.041728)"><path style="stroke:none" d="M 31.625 0 L 23.625 0 L 21.84375 -3.078125 L 9.96875 -3.078125 L 8.203125 0 L 0.203125 0 L 12.25 -18.8125 L 19.578125 -18.8125 Z M 19.1875 -7.75 L 15.921875 -13.453125 L 12.640625 -7.75 Z M 19.1875 -7.75 "/></g></g><g style="fill:#ffffff;fill-opacity:1;"><g transform="translate(59.887341, 27.041728)"><path style="stroke:none" d="M 14.234375 0.40625 C 9.578125 0.40625 6.15625 -0.550781 3.96875 -2.46875 C 2.019531 -4.164062 1.046875 -6.472656 1.046875 -9.390625 C 1.046875 -12.328125 2.019531 -14.644531 3.96875 -16.34375 C 6.15625 -18.257812 9.578125 -19.21875 14.234375 -19.21875 C 16.890625 -19.21875 19.09375 -18.914062 20.84375 -18.3125 C 22.601562 -17.71875 23.984375 -16.90625 24.984375 -15.875 C 25.992188 -14.851562 26.679688 -13.671875 27.046875 -12.328125 L 18.59375 -12.328125 C 17.707031 -13.546875 16.253906 -14.15625 14.234375 -14.15625 C 12.328125 -14.15625 10.925781 -13.609375 10.03125 -12.515625 C 9.3125 -11.628906 8.953125 -10.585938 8.953125 -9.390625 C 8.953125 -8.191406 9.3125 -7.15625 10.03125 -6.28125 C 10.925781 -5.1875 12.328125 -4.640625 14.234375 -4.640625 C 15.773438 -4.640625 16.929688 -4.773438 17.703125 -5.046875 C 18.484375 -5.316406 19.050781 -5.664062 19.40625 -6.09375 L 16.328125 -6.09375 L 16.328125 -9.390625 L 27.046875 -9.390625 L 27.046875 0.015625 L 23.765625 0.015625 L 23.09375 -1.8125 C 21 -0.332031 18.046875 0.40625 14.234375 0.40625 Z M 14.234375 0.40625 "/></g></g><g style="fill:#ffffff;fill-opacity:1;"><g transform="translate(88.491802, 27.041728)"><path style="stroke:none" d="M 31.625 0 L 23.625 0 L 21.84375 -3.078125 L 9.96875 -3.078125 L 8.203125 0 L 0.203125 0 L 12.25 -18.8125 L 19.578125 -18.8125 Z M 19.1875 -7.75 L 15.921875 -13.453125 L 12.640625 -7.75 Z M 19.1875 -7.75 "/></g></g><g style="fill:#ffffff;fill-opacity:1;"><g transform="translate(118.459478, 27.041728)"><path style="stroke:none" d="M 12.4375 0.40625 C 9.894531 0.40625 7.84375 0.132812 6.28125 -0.40625 C 4.726562 -0.957031 3.546875 -1.710938 2.734375 -2.671875 C 1.921875 -3.628906 1.375 -4.734375 1.09375 -5.984375 L 9.46875 -5.984375 C 10.09375 -5.085938 11.082031 -4.640625 12.4375 -4.640625 C 13.789062 -4.640625 14.78125 -5.085938 15.40625 -5.984375 C 15.457031 -6.066406 15.484375 -6.144531 15.484375 -6.21875 C 15.484375 -6.457031 15.171875 -6.632812 14.546875 -6.75 C 13.921875 -6.863281 12.988281 -6.953125 11.75 -7.015625 C 10.175781 -7.085938 8.53125 -7.253906 6.8125 -7.515625 C 2.96875 -8.109375 1.046875 -9.65625 1.046875 -12.15625 C 1.046875 -12.363281 1.0625 -12.585938 1.09375 -12.828125 C 1.375 -14.078125 1.921875 -15.179688 2.734375 -16.140625 C 3.546875 -17.097656 4.726562 -17.847656 6.28125 -18.390625 C 7.84375 -18.941406 9.894531 -19.21875 12.4375 -19.21875 C 14.988281 -19.21875 17.039062 -18.941406 18.59375 -18.390625 C 20.15625 -17.847656 21.34375 -17.097656 22.15625 -16.140625 C 22.96875 -15.179688 23.515625 -14.078125 23.796875 -12.828125 L 15.40625 -12.828125 C 14.78125 -13.710938 13.789062 -14.15625 12.4375 -14.15625 C 11.082031 -14.15625 10.09375 -13.710938 9.46875 -12.828125 C 9.425781 -12.753906 9.40625 -12.6875 9.40625 -12.625 C 9.40625 -12.414062 9.703125 -12.257812 10.296875 -12.15625 C 10.898438 -12.050781 11.785156 -11.960938 12.953125 -11.890625 C 14.117188 -11.828125 15.363281 -11.71875 16.6875 -11.5625 C 18.007812 -11.40625 19.242188 -11.128906 20.390625 -10.734375 C 21.546875 -10.347656 22.445312 -9.773438 23.09375 -9.015625 C 23.601562 -8.429688 23.859375 -7.6875 23.859375 -6.78125 C 23.859375 -6.53125 23.835938 -6.265625 23.796875 -5.984375 C 23.515625 -4.734375 22.96875 -3.628906 22.15625 -2.671875 C 21.34375 -1.710938 20.15625 -0.957031 18.59375 -0.40625 C 17.039062 0.132812 14.988281 0.40625 12.4375 0.40625 Z M 12.4375 0.40625 "/></g></g></g></svg>